<?xml version="1.0" standalone="no"?>
<!DOCTYPE svg PUBLIC "-//W3C//DTD SVG 20010904//EN"
 "http://www.w3.org/TR/2001/REC-SVG-20010904/DTD/svg10.dtd">
<svg version="1.0" xmlns="http://www.w3.org/2000/svg"
 width="250.000000pt" height="250.000000pt" viewBox="0 0 250.000000 250.000000"
 preserveAspectRatio="xMidYMid meet">
<metadata>
Created by potrace 1.11, written by Peter Selinger 2001-2013
</metadata>
<g transform="translate(0.000000,250.000000) scale(0.100000,-0.100000)"
fill="#000000" stroke="none">
<path d="M320 1940 l0 -60 30 0 30 0 0 -61 c0 -51 3 -60 18 -58 35 3 42 -2 42
-31 0 -27 3 -30 30 -30 l30 0 0 -60 0 -60 30 0 c27 0 30 -3 30 -30 0 -27 3
-30 30 -30 l30 0 0 -60 0 -60 30 0 c27 0 30 -3 30 -30 0 -27 3 -30 30 -30 l30
0 0 -60 0 -60 30 0 30 0 0 -60 0 -60 30 0 30 0 0 -60 0 -60 30 0 c27 0 30 -3
30 -30 0 -27 3 -30 30 -30 l30 0 0 -60 0 -60 30 0 c27 0 30 -3 30 -30 0 -27 3
-30 30 -30 l30 0 0 -60 0 -60 30 0 c27 0 30 -3 30 -30 0 -27 3 -30 30 -30 27
0 30 -3 30 -30 0 -27 3 -30 30 -30 27 0 30 3 30 30 0 27 3 30 30 30 27 0 30 3
30 30 0 27 3 30 30 30 l30 0 0 60 0 60 30 0 c27 0 30 3 30 30 0 27 3 30 30 30
l30 0 0 60 0 60 30 0 c27 0 30 3 30 30 0 27 3 30 30 30 l30 0 0 60 0 60 30 0
30 0 0 60 0 60 30 0 30 0 0 60 0 60 30 0 c27 0 30 3 30 30 0 27 3 30 30 30
l30 0 0 60 0 60 30 0 c27 0 30 3 30 30 0 27 3 30 30 30 l30 0 0 60 0 60 30 0
c27 0 30 3 30 30 0 29 7 34 43 31 14 -2 17 7 17 58 l0 61 30 0 30 0 0 60 0 60
-930 0 -930 0 0 -60z m784 -82 c-1 -13 -3 -40 -3 -60 -1 -35 -3 -38 -31 -38
l-30 0 0 -60 0 -60 -30 0 c-27 0 -30 -3 -30 -30 0 -27 -3 -30 -30 -30 l-30 0
0 -60 0 -60 -30 0 c-27 0 -30 -3 -30 -30 l0 -30 -60 0 -60 0 0 60 0 60 -30 0
c-27 0 -30 3 -30 30 0 27 -3 30 -30 30 l-30 0 0 60 0 60 -30 0 -30 0 0 60 0
60 -30 0 c-27 0 -30 3 -30 30 l0 30 303 0 304 0 -3 -22z m896 -8 c0 -27 -3
-30 -30 -30 l-30 0 0 -60 0 -60 -30 0 -30 0 0 -60 0 -60 -30 0 c-27 0 -30 -3
-30 -30 0 -27 -3 -30 -30 -30 l-30 0 0 -60 0 -60 -60 0 -60 0 0 30 c0 27 -3
30 -30 30 l-30 0 0 60 0 60 -30 0 c-27 0 -30 3 -30 30 0 27 -3 30 -30 30 l-30
0 0 60 c0 60 0 60 -29 60 -27 0 -29 3 -32 43 -7 84 -34 77 302 77 l299 0 0
-30z m-720 -60 c0 -27 3 -30 30 -30 l30 0 0 -60 0 -60 30 0 c27 0 30 -3 30
-30 0 -27 3 -30 30 -30 l30 0 0 -60 0 -60 30 0 30 0 0 -60 0 -60 30 0 30 0 0
-90 0 -90 -30 0 -30 0 0 -60 0 -60 -30 0 c-27 0 -30 -3 -30 -30 0 -27 -3 -30
-30 -30 l-30 0 0 -60 0 -60 -30 0 c-27 0 -30 -3 -30 -30 0 -27 -3 -30 -30 -30
l-30 0 0 -60 0 -60 -30 0 -30 0 0 60 0 60 -30 0 c-27 0 -30 3 -30 30 0 27 -3
30 -30 30 l-30 0 0 60 0 60 -30 0 c-27 0 -30 3 -30 30 0 27 -3 30 -30 30 l-30
0 0 60 0 60 -30 0 -30 0 0 90 0 90 30 0 30 0 0 60 0 60 30 0 30 0 0 60 0 60
30 0 c27 0 30 3 30 30 0 27 3 30 30 30 l30 0 0 60 0 60 30 0 c27 0 30 3 30 30
0 27 3 30 30 30 27 0 30 -3 30 -30z"/>
</g>
</svg>
